<?xml version="1.0" encoding="UTF-8"?>
<svg id="Layer_2" data-name="Layer 2" xmlns="http://www.w3.org/2000/svg" viewBox="0 0 1679.52 875.95">
  <defs>
    <style>
      .cls-1 {
        fill: #65ace4;
      }

      .cls-2 {
        fill: #d16b16;
      }

      .cls-3 {
        fill: #9460a0;
      }

      .cls-4 {
        fill: #c83a40;
      }

      .cls-5 {
        fill: #0174bf;
      }

      .cls-6 {
        fill: #fffde1;
      }

      .cls-7 {
        fill: #de9610;
      }

      .cls-8 {
        fill: #91e500;
      }

      .cls-9 {
        fill: #d8609f;
      }
    </style>
  </defs>
  <g id="_レイヤー_1" data-name="レイヤー 1">
    <g>
      <path class="cls-4" d="M1495.7,875.95c-7.13,0-14.21-1.05-21.04-3.11l-70.77-21.38c-21.83-6.59-38.97-22.61-47.02-43.94-1.98-5.25-3.35-10.68-4.08-16.18l-61.67-18.63c-20.08-6.06-36.13-20.13-44.76-38.42l-19.86-1.9c-14-1.34-27.17-6.66-38.07-15.12-10.23,5.19-21.61,8-33.2,8-2.3,0-4.65-.11-6.96-.33l-99.45-9.46c-3.41-.32-6.77-.88-10.07-1.66-10.76,7.98-23.71,12.73-37.31,13.46l-42.46,2.26c-1.19.06-2.44.1-3.68.1-20.83,0-40.3-9.29-53.42-25.48-7.8-9.62-12.74-20.93-14.57-32.81-5.17,2.6-10.69,4.62-16.45,5.96l-123.35,28.73c-5.67,1.32-11.46,1.99-17.23,1.99-20.99,0-40.78-9.06-54.69-24.19l-5.95,2.38c-8.61,3.43-17.65,5.17-26.89,5.17-1.64,0-3.28-.06-4.91-.17-7.32,7.94-16.36,14.21-26.48,18.24l-92.78,37.01c-8.69,3.47-17.79,5.23-27.04,5.23-10.81,0-21.47-2.45-31.13-7.07l-68.83,38.34c-10.48,5.83-22.33,8.92-34.29,8.92-10.08,0-19.95-2.16-29-6.23l-84.74,67.4c-12.63,10.05-27.74,15.36-43.69,15.36-24.44,0-47.52-13.05-60.26-34.05-12.79-21.09-13.57-46.81-2.09-68.8l33.93-65.02-6.52-26.13-18.01,14.33c-12.38,9.85-27.91,15.28-43.72,15.28-28,0-53.3-16.58-64.46-42.25l-32.85-75.55c-7.48-17.21-7.82-36.31-.94-53.77,6.88-17.46,20.15-31.2,37.36-38.69l177.18-77.04c8.9-3.87,18.33-5.83,28.01-5.83,28.76,0,54.22,17.61,64.93,43.4l105.07-26.43-.86-7.3c-21.96-.89-42.08-12.28-54.23-30.85-12.58-19.24-14.58-43.34-5.33-64.47l16.44-37.58-37.49-134.98c-10.04-36.15,11.2-73.74,47.36-83.78l41.14-11.43c5.93-1.65,12.06-2.48,18.22-2.48,4.58,0,9.11.46,13.56,1.36,4.37-2.39,8.95-4.28,13.71-5.66,7.22-5.85,15.62-10.19,24.67-12.7l6.01-1.67c4.25-1.18,8.61-1.95,13-2.28,3.93-1.97,8.05-3.56,12.31-4.75l5.13-1.42c5.93-1.65,12.06-2.48,18.22-2.48,30.45,0,57.42,20.5,65.57,49.84l2.42,8.72c1.81,6.53,2.61,13.15,2.46,19.68l96.91-6.95c4.08-6.8,9.39-12.86,15.69-17.79l83.06-65.05c11.4-8.93,25.67-13.86,40.17-13.86,1.28,0,2.58.04,3.87.11l75.86,4.55c27.27,1.64,50.15,19.54,58.29,45.62,2,6.4,2.98,12.98,2.98,19.52l18.78,4.7c12.63,3.16,23.81,9.78,32.49,19.09l18.83-.31c.42,0,.77,0,1.12,0,3.09,0,6.16.21,9.19.63l3.17-7.98c10.73-26.96,36.4-44.37,65.41-44.37,8.94,0,17.7,1.68,26.02,4.99l32.52,12.94c5.48,2.18,10.61,5,15.32,8.42,5.79.75,11.44,2.22,16.9,4.4l30.01,11.94c17.47,6.95,31.19,20.29,38.63,37.56,7.44,17.27,7.7,36.4.75,53.88l-21.33,53.62c13.32,8.01,23.85,20.44,29.6,35.75,10.4,27.68,2.73,58.16-19.55,77.67l-20.42,17.88c9.24,4.91,17.29,11.7,23.65,19.95l1.71.16c8.35.8,16.52,3.01,24.06,6.51,3.02-.38,6.05-.57,9.09-.57,8.78,0,17.41,1.56,25.65,4.62l1.91.71c6.36,2.37,12.27,5.54,17.66,9.48,6.66.56,13.2,2.02,19.51,4.37l.82.3c18.41,6.86,33.04,20.47,41.2,38.33.87,1.91,1.66,3.84,2.36,5.79,13.57-14.29,32.4-22.5,52.66-22.5,13.55,0,26.81,3.78,38.33,10.93l39.48,24.49c6.27,3.89,11.81,8.6,16.55,14.06,7,1.84,13.74,4.73,19.89,8.54l36.52,22.65c16.52,10.24,28.06,26.31,32.49,45.23,4.43,18.92,1.23,38.44-9.01,54.95l-46.78,75.42c16.9,9.1,29.82,24.86,35.32,44.64,8.86,31.84-4.21,64.71-32.53,81.78l-91.31,55.06c-11.34,6.84-24.33,10.45-37.57,10.45Z"/>
      <g>
        <path class="cls-7" d="M419.39,388.04c-15.01,0-28.9-7.54-37.16-20.18-8.19-12.52-9.48-28.22-3.46-41.99l19.82-45.3-39.74-143.1c-6.54-23.56,7.3-48.06,30.86-54.6l41.14-11.43c3.87-1.08,7.87-1.62,11.87-1.62,5.85,0,11.5,1.16,16.69,3.28l7-4.13c4.61-2.72,9.67-4.57,14.9-5.49,5.37-5.45,12.1-9.43,19.68-11.53l6.01-1.67c3.87-1.08,7.87-1.62,11.88-1.62.44,0,.88,0,1.32.02,3.65-2.35,7.72-4.2,12.12-5.43l5.13-1.42c3.87-1.08,7.87-1.62,11.87-1.62,19.85,0,37.42,13.36,42.73,32.48l2.42,8.72c5.36,19.31-2.95,39.9-20.21,50.07l-.63.37,54.81,87.11c6.35,10.09,8.37,22.52,5.56,34.1-2.82,11.58-10.33,21.7-20.6,27.74l-47.65,28.04c-6.82,4.01-14.59,6.13-22.48,6.13-2.47,0-4.9-.2-7.29-.6-3.4,9.57-10.06,17.94-19.25,23.36l-74.81,44.1c-6.87,4.05-14.66,6.19-22.54,6.19Z"/>
        <path class="cls-6" d="M451.2,111.81l51.49,185.38c1.07,3.84-.58,7.91-4.01,9.93l-74.81,44.1c-7.35,4.33-15.95-3.29-12.53-11.1l23.64-54.02c.81-1.85.96-3.93.42-5.88l-42.29-152.27c-1.3-4.68,1.44-9.53,6.12-10.83l41.14-11.43c4.68-1.3,9.53,1.44,10.83,6.12ZM517.3,135.03l4.54-2.68c4.1-2.42,9.38-1.14,11.91,2.89l64.6,102.66c2.64,4.2,1.29,9.75-2.98,12.27l-47.65,28.04c-4.55,2.68-10.42.77-12.53-4.07l-67.69-155.57c-1.77-4.07-.23-8.83,3.6-11.09l13.38-7.89c4.98-2.94,11.4-.35,12.94,5.23l6.93,24.98c1.55,5.57,7.96,8.16,12.94,5.23ZM527.36,90.66l4.69,16.88c1.07,3.84-.58,7.91-4.01,9.93l-5.57,3.28c-4.98,2.94-11.4.35-12.94-5.22l-5.14-18.49c-1.3-4.68,1.44-9.53,6.12-10.83l6.01-1.67c4.68-1.3,9.53,1.44,10.83,6.12ZM557.79,82.21l2.42,8.72c1.07,3.84-.58,7.91-4.01,9.93l-4.74,2.8c-4.98,2.94-11.4.35-12.94-5.22l-2.8-10.09c-1.3-4.68,1.44-9.53,6.12-10.83l5.12-1.42c4.68-1.3,9.53,1.44,10.83,6.12Z"/>
      </g>
      <g>
        <path class="cls-1" d="M613.15,254.68c-24.61,0-45.26-19.23-47.02-43.79l-2.94-41.04c-.9-12.56,3.14-24.73,11.39-34.25,8.25-9.52,19.71-15.26,32.27-16.16l114.31-8.2c1.12-.08,2.26-.12,3.39-.12,24.61,0,45.27,19.23,47.02,43.79l.75,10.41c1.52,21.25-11.47,40.96-31.6,47.93l-112.11,38.83c-4.99,1.73-10.19,2.6-15.44,2.6Z"/>
        <path class="cls-6" d="M736.1,157.44l.75,10.41c.38,5.24-2.81,10.07-7.78,11.79l-112.12,38.83c-7.21,2.5-14.82-2.52-15.37-10.13l-2.94-41.04c-.46-6.39,4.35-11.94,10.74-12.4l114.31-8.2c6.39-.46,11.94,4.35,12.4,10.74Z"/>
      </g>
      <g>
        <path class="cls-9" d="M763.44,313.73c-17.61,0-33.32-11.25-39.09-27.99-5.75-16.69-.26-35.23,13.67-46.11l.71-.55c-6.73-2.11-12.9-5.92-17.81-11.14-7.8-8.28-11.88-19.53-11.2-30.89l2.41-40.16c.81-13.51,8.14-25.45,19.08-32.45-1.04-13.58,4.7-27.1,15.78-35.78l83.06-65.05c7.25-5.68,16.33-8.81,25.55-8.81.82,0,1.65.02,2.47.07l75.83,4.54c17.35,1.04,31.9,12.43,37.08,29.02,5.04,16.14-.03,33.27-12.89,44.06,3.61,3.3,6.68,7.27,9,11.8,7.12,13.89,5.88,30.39-3.24,43.08l-33.45,46.52c-6.11,8.49-15.11,14.32-25.35,16.41l-4.22.86-2.67,44.49c-1.12,18.69-14.71,34.36-33.05,38.12l-93.26,19.1c-2.77.57-5.6.86-8.41.86Z"/>
        <path class="cls-6" d="M935.05,65.41l-48.33,37.87c-.72.56-1.56.95-2.45,1.13l-8.39,1.72c-2.61.53-4.53,2.75-4.69,5.41l-.62,10.29c-.23,3.86,3.26,6.89,7.05,6.12l51.4-10.52c5.25-1.07,9.08,4.85,5.96,9.2l-33.45,46.52c-.86,1.2-2.15,2.03-3.6,2.33l-26.54,5.43c-2.61.53-4.53,2.75-4.69,5.41l-4.03,67.22c-.16,2.66-2.08,4.88-4.69,5.41l-93.26,19.1c-6.09,1.25-9.7-6.57-4.8-10.4l50.73-39.66c1.33-1.04,2.15-2.6,2.25-4.28l1.41-23.54c.23-3.86-3.26-6.89-7.05-6.12l-54.99,11.26c-3.79.78-7.29-2.25-7.05-6.12l2.41-40.16c.16-2.66,2.08-4.88,4.69-5.41l61.17-12.52c2.61-.53,4.53-2.75,4.69-5.41l.62-10.28c.23-3.86-3.26-6.89-7.05-6.12l-38.02,7.78c-6.09,1.25-9.7-6.57-4.81-10.4l83.06-65.05c1.13-.89,2.55-1.33,3.98-1.24l75.83,4.54c5.41.32,7.54,7.16,3.28,10.5Z"/>
      </g>
      <g>
        <path class="cls-8" d="M937.37,321.4c-13.3,0-25.63-6.01-33.81-16.5-8.19-10.49-11.03-23.9-7.8-36.81l13.27-53.03c-1.65-1.54-3.19-3.22-4.6-5.03-8.19-10.49-11.03-23.9-7.8-36.81l7.66-30.63c3.86-15.41,15.85-27.16,30.72-31.08,5.58-17.8,22.06-30.03,40.92-30.03,3.51,0,7.01.43,10.42,1.28l23.28,5.82c11.12,2.78,20.49,9.72,26.38,19.55.09.15.18.3.26.45l30.83-.51c.24,0,.49,0,.72,0,16.08,0,30.67,8.87,38.08,23.16,7.4,14.28,6.24,31.32-3.03,44.47l-41.54,58.88c-8.04,11.4-21.1,18.2-34.93,18.2-4.47,0-8.9-.71-13.11-2.06l-9.46,37.79c-4.7,18.8-21.52,32.16-40.9,32.48l-24.83.41c-.24,0-.48,0-.72,0Z"/>
        <path class="cls-6" d="M1006.33,131.98l-.86,3.42c-1.17,4.69,2.42,9.21,7.25,9.13l54.96-.92c6.01-.1,9.59,6.67,6.12,11.58l-41.54,58.87c-4.66,6.61-15.03,1.93-13.15-5.94l2.24-9.37c1.12-4.67-2.47-9.13-7.27-9.05l-16.66.28c-3.32.06-6.2,2.34-7,5.56l-21.1,84.32c-.81,3.22-3.68,5.51-7,5.56l-24.84.41c-4.83.08-8.42-4.44-7.25-9.13l19.18-76.68c1.17-4.69-2.42-9.21-7.25-9.13l-3.82.06c-4.83.08-8.42-4.44-7.25-9.13l7.66-30.63c.81-3.22,3.68-5.51,7-5.56l11.7-.2c3.32-.06,6.2-2.34,7-5.56l4.33-17.3c.98-3.94,4.97-6.33,8.91-5.34l23.28,5.82c3.94.98,6.33,4.97,5.34,8.91Z"/>
      </g>
      <g>
        <path class="cls-3" d="M1187.56,380.52c-1.81,0-3.64-.11-5.44-.32l-56.21-6.6c-14.53-1.71-27.17-9.89-34.66-22.46-2.98-4.99-4.96-10.37-5.93-15.9l-55.49-6.52c-20.83-2.45-37.15-17.99-40.61-38.68-3.46-20.69,6.92-40.69,25.82-49.78l31.75-15.27,55.39-139.22c7.12-17.88,24.15-29.44,43.39-29.44,5.93,0,11.74,1.11,17.26,3.31l32.52,12.94c5.69,2.26,10.69,5.53,14.87,9.51h.08c5.93,0,11.74,1.11,17.26,3.31l30.01,11.94c11.59,4.61,20.69,13.46,25.62,24.92,4.93,11.46,5.11,24.15.5,35.74l-30.39,76.38c17.38,1.86,32.17,13.26,38.49,30.09,6.9,18.34,1.8,38.56-12.98,51.5l-60.51,52.98c-8.52,7.46-19.44,11.56-30.76,11.56Z"/>
        <path class="cls-6" d="M1188.45,120.1l-69.62,174.96c-1.86,4.69-6.64,7.53-11.65,6.95l-73.2-8.6c-11.08-1.3-13.58-16.27-3.53-21.11l40.33-19.39c2.52-1.21,4.49-3.33,5.52-5.92l58.92-148.07c2.28-5.72,8.75-8.51,14.47-6.23l32.52,12.94c5.72,2.27,8.51,8.75,6.23,14.47ZM1250.67,144.86l-46.52,116.91c-3.33,8.38,4.15,17.04,12.92,14.96l28.43-6.73c11.31-2.68,18.65,11.57,9.91,19.23l-60.51,52.98c-2.37,2.08-5.51,3.05-8.64,2.68l-56.2-6.6c-7.28-.85-11.76-8.38-9.05-15.19l78.95-198.42c2.28-5.72,8.75-8.51,14.47-6.23l30.01,11.94c5.72,2.28,8.51,8.75,6.23,14.47Z"/>
      </g>
      <g>
        <path class="cls-5" d="M199.85,835.82c-16.2,0-31.52-8.67-39.99-22.63-8.45-13.94-8.95-30.97-1.35-45.55l38.09-72.99-17.61-70.6-46.85,37.26c-8.21,6.53-18.49,10.12-28.96,10.12-18.56,0-35.33-10.99-42.72-28l-32.85-75.55c-4.96-11.4-5.18-24.06-.62-35.63s13.35-20.68,24.76-25.64l177.18-77.04c5.9-2.57,12.15-3.87,18.56-3.87,22.18,0,41.39,15.8,45.69,37.56l47.56,241.13c3.38,17.15-3.01,34.57-16.69,45.45l-95.26,75.77c-8.39,6.67-18.4,10.2-28.93,10.2Z"/>
        <path class="cls-6" d="M258.28,470.15l47.56,241.13c.8,4.04-.73,8.18-3.95,10.75l-95.25,75.77c-9.31,7.4-22.11-3.17-16.61-13.71l42.4-81.25c1.25-2.39,1.57-5.15.92-7.76l-29.1-116.66c-1.94-7.77-11.26-10.94-17.53-5.95l-76.71,61.01c-5.66,4.51-14.06,2.41-16.95-4.23l-32.85-75.55c-2.42-5.58.13-12.06,5.71-14.48l177.18-77.04c6.44-2.8,13.83,1.07,15.19,7.96Z"/>
      </g>
      <g>
        <path class="cls-8" d="M357.27,759.29c-21.5,0-40.17-14.56-45.41-35.4l-8.32-33.09c-5.16-20.51,4.14-42.02,22.61-52.31l13.95-7.77-3.4-13.5c-2.08.28-4.17.43-6.28.43-21.49,0-40.17-14.56-45.41-35.4l-13.54-53.84c-6.29-25.03,8.95-50.52,33.98-56.81l121.67-30.6c3.78-.95,7.66-1.43,11.52-1.43,16.77,0,32.35,9.12,40.66,23.81,8.28,14.63,8.03,32.68-.64,47.12l-21.86,36.39c-1.98,3.29-4.35,6.32-7.05,9.02l3.15,12.52c5.38-2.08,11.1-3.16,16.83-3.16,15.52,0,30.02,7.73,38.79,20.67,8.68,12.81,10.43,29.09,4.66,43.54l-19.35,48.5c-3.97,9.96-11.33,18.33-20.71,23.55l-93.09,51.85c-6.96,3.87-14.83,5.92-22.76,5.92Z"/>
        <path class="cls-6" d="M448.19,492.19l-21.86,36.39c-1.01,1.69-2.45,3.08-4.17,4.04l-5.54,3.09c-4.45,2.48-6.68,7.64-5.44,12.58l14.85,59.07c1.8,7.18,9.93,10.69,16.39,7.09l21.82-12.15c9.25-5.15,19.85,4.17,15.93,14l-19.35,48.5c-.96,2.4-2.72,4.4-4.98,5.66l-93.1,51.86c-6.46,3.6-14.58.09-16.39-7.09l-8.32-33.09c-1.24-4.94.99-10.1,5.44-12.58l30.24-16.84c4.45-2.48,6.68-7.64,5.44-12.58l-14.86-59.06c-1.8-7.18-9.92-10.69-16.39-7.09l-12,6.68c-6.46,3.6-14.58.09-16.39-7.09l-13.54-53.84c-1.52-6.03,2.14-12.14,8.17-13.66l121.67-30.6c9.73-2.45,17.56,8.1,12.39,16.71Z"/>
      </g>
      <g>
        <g>
          <path class="cls-9" d="M491.52,719.1c-18.44,0-35.13-10.34-43.54-26.98-8.34-16.48-6.68-36,4.31-50.95l56.73-77.1,11.31-44.16-4.85,1.93c-5.8,2.32-11.9,3.49-18.12,3.49-24.77,0-45.64-18.55-48.55-43.16l-9.01-76.18c-1.53-12.97,2.07-25.76,10.16-36.02,8.09-10.26,19.68-16.75,32.65-18.28l161.37-19.09c1.92-.23,3.87-.34,5.79-.34,15.21,0,29.29,6.92,38.63,18.98,9.32,12.05,12.48,27.42,8.66,42.18l-23.43,90.43,46.73,89.78c6.37,12.23,7.27,26.67,2.46,39.6s-14.91,23.28-27.72,28.39l-34.27,13.67c-5.8,2.31-11.89,3.49-18.11,3.49-5.28,0-10.42-.86-15.24-2.46-5.4,9.99-14.2,17.95-24.92,22.23l-92.78,37.02c-5.88,2.35-12.03,3.54-18.26,3.54h0Z"/>
          <path class="cls-8" d="M730.27,675.42c-21.41,0-40.65-13.74-47.86-34.18-7.27-20.62-.93-42.83,16.14-56.59l47.48-38.25-30.74,7.16c-3.81.89-7.71,1.34-11.6,1.34-13.71,0-27.07-5.67-36.64-15.56-9.69-10.01-14.77-23.2-14.31-37.14l1.07-32.28c.29-8.87,2.88-17.25,7.22-24.5-3.94-7.63-5.88-16.18-5.59-25.03l1.89-57.39c.91-27.66,23.3-49.32,50.97-49.32.56,0,1.12,0,1.69.03l202.84,6.69c13.62.45,26.24,6.17,35.55,16.12,9.31,9.95,14.19,22.92,13.74,36.54l-.1,3.04c-.29,8.87-2.88,17.25-7.23,24.51,3.94,7.63,5.88,16.18,5.59,25.03l-1.06,32.29c-.76,23.03-16.96,42.77-39.41,47.99l-12.12,2.82-2.92,88.59c-.76,23.03-16.97,42.77-39.41,47.99l-123.36,28.73c-3.91.91-7.9,1.37-11.85,1.37Z"/>
          <path class="cls-6" d="M662.65,384.51l-25.57,98.69c-.83,3.19-.44,6.58,1.08,9.5l50.67,97.35c3.65,7,.44,15.62-6.89,18.55l-34.27,13.67c-7.7,3.07-16.3-1.55-18-9.66h0c-2.89-13.8-22.43-14.26-25.97-.61l-6.34,24.47c-1.07,4.11-4.02,7.47-7.97,9.04l-92.79,37.02c-12.46,4.97-23.64-9.49-15.69-20.29l59.29-80.57c1.01-1.38,1.75-2.94,2.18-4.6l23.23-90.69c2.71-10.57-7.73-19.74-17.86-15.7l-45.45,18.13c-8.15,3.25-17.16-2.11-18.19-10.82l-9.01-76.18c-.87-7.32,4.36-13.95,11.68-14.81l161.37-19.09c9.32-1.1,16.83,7.51,14.48,16.59Z"/>
        </g>
        <path class="cls-6" d="M911.86,471.28l-27.14,6.32c-6.81,1.59-11.71,7.55-11.94,14.54l-3.43,104.01c-.23,6.99-5.13,12.95-11.94,14.54l-123.36,28.73c-15.99,3.72-25.98-16.77-13.2-27.08l62.2-50.11c3.5-2.82,5.6-7.03,5.75-11.52l1.02-31.04c.33-10.15-9.05-17.86-18.94-15.56l-63.66,14.82c-9.89,2.3-19.28-5.4-18.94-15.56l1.07-32.28c.23-6.99,5.13-12.95,11.94-14.54l204.63-47.66c9.89-2.3,19.28,5.4,18.94,15.56l-1.07,32.29c-.23,6.99-5.13,12.95-11.94,14.54ZM926.6,371.88l-.1,3.05c-.23,6.99-5.13,12.95-11.94,14.54l-204.63,47.65c-9.89,2.3-19.28-5.4-18.94-15.56l1.9-57.39c.28-8.53,7.42-15.21,15.95-14.93l202.84,6.69c8.53.28,15.21,7.42,14.93,15.95Z"/>
      </g>
      <g>
        <path class="cls-2" d="M955.29,697.02c-13.65,0-26.41-6.09-35.01-16.7-8.6-10.61-11.91-24.36-9.08-37.72l7.43-35.08-2.89.15c-.83.05-1.66.07-2.47.07h0c-20.53,0-37.97-13.33-43.41-33.18-5.44-19.83,2.8-40.2,20.5-50.69l60.07-35.59,42.92-56.04c8.47-11.06,21.85-17.67,35.79-17.67,3.13,0,6.27.33,9.33.98l51.53,10.9c15.69,3.32,28.14,14.36,33.33,29.53,5.18,15.17,2.08,31.53-8.29,43.75l-52.55,61.92-20.61,97.36c-4.21,19.93-21.36,34.6-41.71,35.68l-42.46,2.26c-.81.04-1.62.06-2.42.06Z"/>
        <path class="cls-6" d="M1087.94,476.72l-56.81,66.94c-1.02,1.21-1.73,2.65-2.06,4.19l-21.97,103.79c-.89,4.22-4.51,7.31-8.81,7.54l-42.47,2.26c-6.26.33-11.13-5.36-9.83-11.49l14.45-68.27c1.3-6.13-3.57-11.82-9.83-11.49l-36.76,1.96c-9.95.53-13.93-12.63-5.36-17.71l64.4-38.16c1.05-.62,1.97-1.44,2.71-2.4l45.99-60.04c2.23-2.92,5.94-4.29,9.54-3.53l51.53,10.9c7.06,1.49,9.96,9.99,5.29,15.49Z"/>
      </g>
      <g>
        <path class="cls-8" d="M1297.7,706.25c-1.59,0-3.19-.08-4.77-.23l-64.18-6.15c-14.19-1.36-27.13-8.75-35.52-20.27-.63-.86-1.23-1.74-1.79-2.64-9.25,9.78-22.3,15.68-36.22,15.68-1.57,0-3.16-.08-4.73-.22l-99.43-9.46c-21.58-2.05-39.23-17.65-43.91-38.81-4.69-21.16,4.72-42.75,23.41-53.72l49.83-29.25,66.69-179.02c7.22-19.39,25.98-32.42,46.67-32.42,5.95,0,11.8,1.06,17.38,3.14l45.74,17.04c11.86,4.42,21.41,12.98,27.08,24.23l13.19,1.25c8.17.78,15.81,3.47,22.44,7.78,4.17-1.13,8.52-1.74,12.96-1.74,5.95,0,11.79,1.06,17.38,3.14l1.92.71c6.6,2.46,12.37,6.18,17.15,10.78.87-.05,1.75-.07,2.63-.07,5.95,0,11.8,1.06,17.38,3.14l.82.3c12.47,4.65,22.39,13.87,27.92,25.97,5.53,12.1,6.02,25.63,1.37,38.1l-2.22,5.95c-7.23,19.39-25.98,32.42-46.67,32.42-1.57,0-3.15-.08-4.72-.22l-.95-.09c-2.72-.26-5.38-.73-7.96-1.41l-9.2,139.57c-1.72,26.09-23.54,46.53-49.68,46.53Z"/>
        <path class="cls-6" d="M1252.85,421.56l-84.29,226.25c-2.25,6.04-8.28,9.82-14.7,9.21l-99.44-9.46c-13.76-1.31-17.79-19.48-5.87-26.48l56.37-33.09c2.83-1.66,5-4.24,6.14-7.32l69.34-186.12c2.75-7.38,10.95-11.13,18.33-8.38l45.74,17.04c7.38,2.75,11.13,10.95,8.38,18.33ZM1308.87,493.01h0c7.68.73,13.38,7.43,12.87,15.12l-9.84,149.24c-.53,8.02-7.58,14.02-15.58,13.25l-64.18-6.15c-8.52-.82-14.4-8.9-12.56-17.26l45.57-206.59c1.55-7.03,8.1-11.8,15.27-11.12l13.35,1.27c9.33.89,15.28,10.38,12,19.17l-8.91,23.89c-3.27,8.78,2.67,18.28,12,19.17ZM1347.82,456.94l-6.01,16.13c-2.25,6.04-8.28,9.82-14.7,9.21l-2.12-.2c-9.33-.89-15.28-10.38-12-19.16l6.2-16.64c2.75-7.37,10.95-11.13,18.33-8.38l1.93.72c7.38,2.75,11.13,10.95,8.38,18.33ZM1385.78,471.09l-2.22,5.96c-2.25,6.04-8.28,9.82-14.7,9.21l-.9-.09c-9.33-.89-15.28-10.38-12.01-19.16l2.3-6.18c2.75-7.38,10.95-11.13,18.33-8.38l.82.31c7.38,2.75,11.13,10.95,8.38,18.33Z"/>
      </g>
      <g>
        <path class="cls-1" d="M1495.7,843.34c-4.81,0-9.58-.7-14.18-2.1l-70.77-21.38c-14.71-4.45-26.27-15.24-31.7-29.63-3.12-8.27-3.94-17-2.53-25.4l-78.54-23.73c-21.09-6.37-35.1-25.45-34.87-47.49.24-22.03,14.66-40.81,35.89-46.73l49.88-13.9,103.74-167.25c9.01-14.53,24.6-23.2,41.7-23.2,9.13,0,18.07,2.55,25.84,7.37l39.48,24.49c6.53,4.05,11.77,9.39,15.61,15.49,7.37.76,14.48,3.18,20.83,7.11l36.52,22.65c11.13,6.9,18.92,17.74,21.91,30.49,2.99,12.76.83,25.92-6.07,37.05l-63.91,103.03c.87-.05,1.74-.07,2.6-.07,22.23,0,41.18,14.44,47.16,35.93,5.97,21.47-2.84,43.62-21.93,55.14l-91.31,55.06c-7.65,4.61-16.41,7.05-25.33,7.05Z"/>
        <path class="cls-6" d="M1545.24,523.2l-128,206.34c-3.22,5.19-9.53,7.57-15.38,5.81l-93.62-28.28c-12.94-3.91-12.74-22.3.28-25.93l58.17-16.21c3.26-.91,6.06-3.01,7.85-5.89l108.27-174.56c3.93-6.34,12.25-8.29,18.59-4.36l39.48,24.48c6.34,3.93,8.29,12.25,4.36,18.59ZM1618.2,568.45l-86.25,139.04c-5.76,9.28,1.32,21.21,12.23,20.6l42.06-2.35c14.06-.79,19.78,17.77,7.73,25.04l-91.31,55.06c-3.27,1.97-7.22,2.47-10.88,1.36l-70.77-21.38c-8.5-2.57-12.25-12.5-7.57-20.04l145.28-234.21c3.93-6.34,12.25-8.29,18.59-4.36l36.52,22.65c6.34,3.93,8.29,12.25,4.36,18.59Z"/>
      </g>
    </g>
  </g>
</svg>